ply
format ascii 1.0
comment Created by Blender 2.79 (sub 0) - www.blender.org, source file: ''
element vertex 24
property float x
property float y
property float z
property float nx
property float ny
property float nz
property float s
property float t
element face 6
property list uchar uint vertex_indices
end_header
-0.500000 -0.500000 0.500000 -0.000000 -1.000000 0.000000 0.657233 0.009434
-0.500000 -0.500000 -0.500000 -0.000000 -1.000000 0.000000 0.657233 0.323899
0.500000 -0.500000 -0.500000 -0.000000 -1.000000 0.000000 0.342767 0.323899
0.500000 -0.500000 0.500000 -0.000000 -1.000000 0.000000 0.342767 0.009434
-0.500000 0.500000 0.499999 0.000000 1.000000 -0.000000 0.009434 0.657233
0.500000 0.500000 0.500000 0.000000 1.000000 -0.000000 0.009434 0.342767
0.500000 0.500000 -0.500000 0.000000 1.000000 -0.000000 0.323899 0.342767
-0.499999 0.500000 -0.500000 0.000000 1.000000 -0.000000 0.323899 0.657232
-0.500000 -0.500000 0.500000 -1.000000 0.000001 -0.000001 0.342767 0.657233
-0.500000 0.500000 0.499999 -1.000000 0.000001 -0.000001 0.342768 0.342767
-0.499999 0.500000 -0.500000 -1.000000 0.000001 -0.000001 0.657233 0.342767
-0.500000 -0.500000 -0.500000 -1.000000 0.000001 -0.000001 0.657233 0.657233
-0.500000 -0.500000 -0.500000 -0.000000 0.000000 -1.000000 0.009434 0.990566
-0.499999 0.500000 -0.500000 -0.000000 0.000000 -1.000000 0.009434 0.676101
0.500000 0.500000 -0.500000 -0.000000 0.000000 -1.000000 0.323899 0.676101
0.500000 -0.500000 -0.500000 -0.000000 0.000000 -1.000000 0.323899 0.990566
0.500000 -0.500000 -0.500000 1.000000 0.000000 0.000000 0.323899 0.009434
0.500000 0.500000 -0.500000 1.000000 0.000000 0.000000 0.323899 0.323899
0.500000 0.500000 0.500000 1.000000 0.000000 0.000000 0.009434 0.323899
0.500000 -0.500000 0.500000 1.000000 0.000000 0.000000 0.009434 0.009434
-0.500000 0.500000 0.499999 -0.000001 0.000001 1.000000 0.990566 0.009434
-0.500000 -0.500000 0.500000 -0.000001 0.000001 1.000000 0.990566 0.323899
0.500000 -0.500000 0.500000 -0.000001 0.000001 1.000000 0.676101 0.323899
0.500000 0.500000 0.500000 -0.000001 0.000001 1.000000 0.676101 0.009434
4 0 1 2 3
4 4 5 6 7
4 8 9 10 11
4 12 13 14 15
4 16 17 18 19
4 20 21 22 23
