ply
format ascii 1.0
comment Created by Blender 2.79 (sub 0) - www.blender.org, source file: ''
element vertex 24
property float x
property float y
property float z
property float nx
property float ny
property float nz
element face 6
property list uchar uint vertex_indices
end_header
-4.999998 -0.050000 4.999997 -0.000000 -1.000000 0.000000
-4.999998 -0.050000 -4.999998 -0.000000 -1.000000 0.000000
4.999998 -0.050000 -4.999997 -0.000000 -1.000000 0.000000
4.999996 -0.050000 5.000000 -0.000000 -1.000000 0.000000
-5.000000 0.050000 4.999995 0.000000 1.000000 -0.000000
4.999997 0.050000 4.999998 0.000000 1.000000 -0.000000
5.000000 0.050000 -4.999996 0.000000 1.000000 -0.000000
-4.999994 0.050000 -5.000000 0.000000 1.000000 -0.000000
-4.999998 -0.050000 4.999997 -1.000000 0.000005 -0.000000
-5.000000 0.050000 4.999995 -1.000000 0.000005 -0.000000
-4.999994 0.050000 -5.000000 -1.000000 0.000005 -0.000000
-4.999998 -0.050000 -4.999998 -1.000000 0.000005 -0.000000
-4.999998 -0.050000 -4.999998 0.000000 -0.000010 -1.000000
-4.999994 0.050000 -5.000000 0.000000 -0.000010 -1.000000
5.000000 0.050000 -4.999996 0.000000 -0.000010 -1.000000
4.999998 -0.050000 -4.999997 0.000000 -0.000010 -1.000000
4.999998 -0.050000 -4.999997 1.000000 -0.000014 0.000000
5.000000 0.050000 -4.999996 1.000000 -0.000014 0.000000
4.999997 0.050000 4.999998 1.000000 -0.000014 0.000000
4.999996 -0.050000 5.000000 1.000000 -0.000014 0.000000
-5.000000 0.050000 4.999995 -0.000000 0.000021 1.000000
-4.999998 -0.050000 4.999997 -0.000000 0.000021 1.000000
4.999996 -0.050000 5.000000 -0.000000 0.000021 1.000000
4.999997 0.050000 4.999998 -0.000000 0.000021 1.000000
4 0 1 2 3
4 4 5 6 7
4 8 9 10 11
4 12 13 14 15
4 16 17 18 19
4 20 21 22 23
