ply
format ascii 1.0
comment Created by Blender 2.79 (sub 0) - www.blender.org, source file: 'nested.blend'
element vertex 48
property float x
property float y
property float z
property float nx
property float ny
property float nz
property float s
property float t
property uchar red
property uchar green
property uchar blue
element face 12
property list uchar uint vertex_indices
end_header
-1.000000 -1.000000 -1.000000 -1.000000 -0.000000 0.000000 0.742925 0.242925 0 255 255
-1.000000 -1.000000 1.000000 -1.000000 -0.000000 0.000000 0.507076 0.242925 0 255 255
-1.000000 1.000000 1.000000 -1.000000 -0.000000 0.000000 0.507076 0.007075 255 0 0
-1.000000 1.000000 -1.000000 -1.000000 -0.000000 0.000000 0.742925 0.007075 255 0 0
-1.000000 1.000000 -1.000000 0.000000 1.000000 0.000000 0.492925 0.242925 255 0 0
-1.000000 1.000000 1.000000 0.000000 1.000000 0.000000 0.257076 0.242925 255 0 0
1.000000 1.000000 1.000000 0.000000 1.000000 0.000000 0.257076 0.007076 4 255 0
1.000000 1.000000 -1.000000 0.000000 1.000000 0.000000 0.492925 0.007075 4 255 0
1.000000 1.000000 -1.000000 1.000000 -0.000000 0.000000 0.242925 0.492925 4 255 0
1.000000 1.000000 1.000000 1.000000 -0.000000 0.000000 0.007076 0.492925 4 255 0
1.000000 -1.000000 1.000000 1.000000 -0.000000 0.000000 0.007075 0.257076 0 0 255
1.000000 -1.000000 -1.000000 1.000000 -0.000000 0.000000 0.242924 0.257075 0 0 255
-1.000000 -1.000000 1.000000 -0.000000 -1.000000 0.000000 0.492925 0.507076 0 255 255
-1.000000 -1.000000 -1.000000 -0.000000 -1.000000 0.000000 0.492925 0.742925 0 255 255
1.000000 -1.000000 -1.000000 -0.000000 -1.000000 0.000000 0.257076 0.742925 0 0 255
1.000000 -1.000000 1.000000 -0.000000 -1.000000 0.000000 0.257076 0.507076 0 0 255
1.000000 -1.000000 -1.000000 0.000000 -0.000000 -1.000000 0.757075 0.257075 0 0 255
-1.000000 -1.000000 -1.000000 0.000000 -0.000000 -1.000000 0.992924 0.257075 0 255 255
-1.000000 1.000000 -1.000000 0.000000 -0.000000 -1.000000 0.992925 0.492924 255 0 0
1.000000 1.000000 -1.000000 0.000000 -0.000000 -1.000000 0.757075 0.492924 4 255 0
1.000000 1.000000 1.000000 0.000000 -0.000000 1.000000 0.992924 0.007075 4 255 0
-1.000000 1.000000 1.000000 0.000000 -0.000000 1.000000 0.992925 0.242924 255 0 0
-1.000000 -1.000000 1.000000 0.000000 -0.000000 1.000000 0.757076 0.242925 0 255 255
1.000000 -1.000000 1.000000 0.000000 -0.000000 1.000000 0.757075 0.007076 0 0 255
0.000000 0.000000 -0.000000 -1.000000 -0.000000 0.000000 0.242924 0.742925 0 255 255
0.000000 0.000000 2.000000 -1.000000 -0.000000 0.000000 0.007075 0.742925 4 251 251
0.000000 2.000000 2.000000 -1.000000 -0.000000 0.000000 0.007075 0.507076 252 4 0
0.000000 2.000000 -0.000000 -1.000000 -0.000000 0.000000 0.242924 0.507076 255 0 0
0.000000 2.000000 -0.000000 0.000000 1.000000 0.000000 0.492925 0.492925 255 0 0
0.000000 2.000000 2.000000 0.000000 1.000000 0.000000 0.257076 0.492925 255 2 2
2.000000 2.000000 2.000000 0.000000 1.000000 0.000000 0.257076 0.257076 15 255 11
2.000000 2.000000 -0.000000 0.000000 1.000000 0.000000 0.492925 0.257075 4 250 6
2.000000 2.000000 -0.000000 1.000000 -0.000000 0.000000 0.242925 0.242925 11 249 1
2.000000 2.000000 2.000000 1.000000 -0.000000 0.000000 0.007076 0.242925 29 255 25
2.000000 0.000000 2.000000 1.000000 -0.000000 0.000000 0.007075 0.007076 29 29 255
2.000000 0.000000 -0.000000 1.000000 -0.000000 0.000000 0.242925 0.007075 0 0 255
2.000000 0.000000 -0.000000 0.000000 -1.000000 0.000000 0.507076 0.492925 10 54 255
2.000000 0.000000 2.000000 0.000000 -1.000000 0.000000 0.507076 0.257076 4 4 255
0.000000 0.000000 2.000000 0.000000 -1.000000 0.000000 0.742925 0.257075 0 255 255
0.000000 0.000000 -0.000000 0.000000 -1.000000 0.000000 0.742925 0.492925 0 255 255
0.000000 2.000000 -0.000000 0.000000 0.000000 -1.000000 0.007075 0.992925 255 0 0
2.000000 2.000000 -0.000000 0.000000 0.000000 -1.000000 0.007075 0.757076 4 249 7
2.000000 0.000000 -0.000000 0.000000 0.000000 -1.000000 0.242924 0.757076 1 1 255
0.000000 0.000000 -0.000000 0.000000 0.000000 -1.000000 0.242924 0.992925 1 255 255
2.000000 2.000000 2.000000 0.000000 -0.000000 1.000000 0.742925 0.507076 4 255 0
0.000000 2.000000 2.000000 0.000000 -0.000000 1.000000 0.742925 0.742925 252 4 0
0.000000 0.000000 2.000000 0.000000 -0.000000 1.000000 0.507076 0.742925 0 255 255
2.000000 0.000000 2.000000 0.000000 -0.000000 1.000000 0.507076 0.507076 5 5 255
4 0 1 2 3
4 4 5 6 7
4 8 9 10 11
4 12 13 14 15
4 16 17 18 19
4 20 21 22 23
4 24 25 26 27
4 28 29 30 31
4 32 33 34 35
4 36 37 38 39
4 40 41 42 43
4 44 45 46 47
