ply
format ascii 1.0
comment Created by Blender 2.79 (sub 0) - www.blender.org, source file: 'plane.blend'
element vertex 48
property float x
property float y
property float z
property float nx
property float ny
property float nz
element face 12
property list uchar uint vertex_indices
end_header
4.999998 4.751521 0.691674 0.000000 -0.000000 1.000000
-4.999996 4.751523 0.691674 0.000000 -0.000000 1.000000
-4.999998 -4.751521 0.691674 0.000000 -0.000000 1.000000
4.999998 -4.751521 0.691674 0.000000 -0.000000 1.000000
5.000000 4.751519 1.691674 0.000000 0.000000 -1.000000
4.999994 -4.751524 1.691674 0.000000 0.000000 -1.000000
-5.000000 -4.751520 1.691674 0.000000 0.000000 -1.000000
-4.999997 4.751522 1.691674 0.000000 0.000000 -1.000000
4.999998 4.751521 0.691674 -1.000000 0.000000 -0.000000
4.999998 -4.751521 0.691674 -1.000000 0.000000 -0.000000
4.999994 -4.751524 1.691674 -1.000000 0.000000 -0.000000
5.000000 4.751519 1.691674 -1.000000 0.000000 -0.000000
4.999998 -4.751521 0.691674 0.000000 1.000000 0.000001
-4.999998 -4.751521 0.691674 0.000000 1.000000 0.000001
-5.000000 -4.751520 1.691674 0.000000 1.000000 0.000001
4.999994 -4.751524 1.691674 0.000000 1.000000 0.000001
-4.999998 -4.751521 0.691674 1.000000 -0.000000 0.000001
-4.999996 4.751523 0.691674 1.000000 -0.000000 0.000001
-4.999997 4.751522 1.691674 1.000000 -0.000000 0.000001
-5.000000 -4.751520 1.691674 1.000000 -0.000000 0.000001
-4.999996 4.751523 0.691674 -0.000000 -1.000000 -0.000002
4.999998 4.751521 0.691674 -0.000000 -1.000000 -0.000002
5.000000 4.751519 1.691674 -0.000000 -1.000000 -0.000002
-4.999997 4.751522 1.691674 -0.000000 -1.000000 -0.000002
4.999998 4.751521 0.691674 0.000000 0.000000 -1.000000
4.999998 -4.751521 0.691674 0.000000 0.000000 -1.000000
-4.999998 -4.751521 0.691674 0.000000 0.000000 -1.000000
-4.999996 4.751523 0.691674 0.000000 0.000000 -1.000000
4.999998 4.751521 0.691674 1.000000 -0.000000 0.000000
5.000000 4.751519 1.691674 1.000000 -0.000000 0.000000
4.999994 -4.751524 1.691674 1.000000 -0.000000 0.000000
4.999998 -4.751521 0.691674 1.000000 -0.000000 0.000000
4.999998 -4.751521 0.691674 -0.000000 -1.000000 -0.000001
4.999994 -4.751524 1.691674 -0.000000 -1.000000 -0.000001
-5.000000 -4.751520 1.691674 -0.000000 -1.000000 -0.000001
-4.999998 -4.751521 0.691674 -0.000000 -1.000000 -0.000001
-4.999998 -4.751521 0.691674 -1.000000 0.000000 -0.000001
-5.000000 -4.751520 1.691674 -1.000000 0.000000 -0.000001
-4.999997 4.751522 1.691674 -1.000000 0.000000 -0.000001
-4.999996 4.751523 0.691674 -1.000000 0.000000 -0.000001
5.000000 4.751519 1.691674 0.000000 1.000000 0.000002
4.999998 4.751521 0.691674 0.000000 1.000000 0.000002
-4.999996 4.751523 0.691674 0.000000 1.000000 0.000002
-4.999997 4.751522 1.691674 0.000000 1.000000 0.000002
5.000000 4.751519 1.691674 0.000000 -0.000000 1.000000
-4.999997 4.751522 1.691674 0.000000 -0.000000 1.000000
-5.000000 -4.751520 1.691674 0.000000 -0.000000 1.000000
4.999994 -4.751525 1.691674 0.000000 -0.000000 1.000000
4 0 1 2 3
4 4 5 6 7
4 8 9 10 11
4 12 13 14 15
4 16 17 18 19
4 20 21 22 23
4 24 25 26 27
4 28 29 30 31
4 32 33 34 35
4 36 37 38 39
4 40 41 42 43
4 44 45 46 47
